inDegrees=no
num_controls=7
num_derivatives=13
num_iterations=122
num_multipliers=7
num_parameters=0
num_slacks=7
num_states=26
objective=5.253298
objective_accelerations=0.626926
objective_balance=0.024332
objective_effort=0.622331
objective_height=3.886306
objective_ligament=0.093404
solver_duration=1301.057407
status=Solve_Succeeded
success=true
DataType=double
version=3
OpenSimVersion=4.4-2022-07-23-0e9fedc
endheader
time	/jointset/ground_pelvis/pelvis_tilt/value	/jointset/ground_pelvis/pelvis_tx/value	/jointset/ground_pelvis/pelvis_ty/value	/jointset/hip_l/hip_flexion_l/value	/jointset/hip_l/hip_adduction_l/value	/jointset/hip_l/hip_rotation_l/value	/jointset/back/lumbar_extension/value	/jointset/patellofemoral_l/patellar_flexion_l/value	/jointset/knee_l/knee_flexion_l/value	/jointset/knee_l/knee_adduction_l/value	/jointset/knee_l/knee_rotation_l/value	/jointset/ankle_l/ankle_angle_l/value	/jointset/subtalar_l/subtalar_angle_l/value	/jointset/ground_pelvis/pelvis_tilt/speed	/jointset/ground_pelvis/pelvis_tx/speed	/jointset/ground_pelvis/pelvis_ty/speed	/jointset/hip_l/hip_flexion_l/speed	/jointset/hip_l/hip_adduction_l/speed	/jointset/hip_l/hip_rotation_l/speed	/jointset/back/lumbar_extension/speed	/jointset/patellofemoral_l/patellar_flexion_l/speed	/jointset/knee_l/knee_flexion_l/speed	/jointset/knee_l/knee_adduction_l/speed	/jointset/knee_l/knee_rotation_l/speed	/jointset/ankle_l/ankle_angle_l/speed	/jointset/subtalar_l/subtalar_angle_l/speed	/forceset/tau_hip_flexion_l	/forceset/tau_hip_adduction_l	/forceset/tau_hip_rotation_l	/forceset/tau_knee_flexion_l	/forceset/tau_ankle_angle_l	/forceset/tau_subtalar_angle_l	/forceset/tau_lumbar_extension	lambda_cid13_p0	lambda_cid13_p1	lambda_cid13_p2	lambda_cid13_p3	lambda_cid13_p4	lambda_cid13_p5	lambda_cid14_p0	/jointset/ground_pelvis/pelvis_tilt/accel	/jointset/ground_pelvis/pelvis_tx/accel	/jointset/ground_pelvis/pelvis_ty/accel	/jointset/hip_l/hip_flexion_l/accel	/jointset/hip_l/hip_adduction_l/accel	/jointset/hip_l/hip_rotation_l/accel	/jointset/back/lumbar_extension/accel	/jointset/patellofemoral_l/patellar_flexion_l/accel	/jointset/knee_l/knee_flexion_l/accel	/jointset/knee_l/knee_adduction_l/accel	/jointset/knee_l/knee_rotation_l/accel	/jointset/ankle_l/ankle_angle_l/accel	/jointset/subtalar_l/subtalar_angle_l/accel	gamma_cid13_p0	gamma_cid13_p1	gamma_cid13_p2	gamma_cid13_p3	gamma_cid13_p4	gamma_cid13_p5	gamma_cid14_p0
1.5	-0.05848831877390812	-0.05207830696672134	0.8105331578566507	0.8988179929570611	-0.3169473244511924	-0.1046578027239919	-0.8200314650175431	0.9104802459718204	0.9104802459718044	-0.06604785133581645	-0.1745287857785736	0.1380520847709032	0.02438225529676294	0.47127012477844	0.2847507690353347	0.6081823352453081	-2.567423771672529	0.05260480702780235	-0.6812781968533843	0.8125136680727079	-2.349177289615803	-2.349177289615897	-0.2397346474875373	-4.89538533232904e-05	-0.3969238168250825	-0.07799130084072946	-0.2448302728881998	0.01111108700301923	-0.008623835433215996	-0.2474755144329871	0.1145932568410804	0.04542129111743078	0.3095108239674173	-4.628519125671005	-19.82953544238099	3.750486944462393	-16.24226974076122	-662.0239883657965	-74.51861387149582	-10.14667121806932	0.3884270615131452	0.9892280255931086	-0.8123614554195553	-1.108048503739402	0.5545756428042716	-0.5964919616165243	2.391138255886804	-1.241704702937267	-1.241704702937279	-0.1429746466253281	-0.01043825012188442	-0.5411460199781948	0.4632766866917045	6.677850292616271e-07	-4.997911201354088e-08	-3.98901944320632e-06	-4.270745670343547e-07	7.066780609266667e-07	-3.069588156194989e-07	5.137009553025886e-07
1.51	-0.05375656084111298	-0.04918151076809178	0.8165731109375225	0.8730905153736249	-0.3163950496885949	-0.1114965501382366	-0.811788119852924	0.8869291602915584	0.8869291602915652	-0.06845756521392463	-0.1745294962195088	0.1340562856148039	0.0236238166950176	0.4750006524888514	0.2945861514717716	0.5996772584209676	-2.577748289045158	0.05785179846079551	-0.6864020303345091	0.8360644065475689	-2.360708693340612	-2.360708693340661	-0.2422069110414974	-8.321638550921636e-05	-0.4021252171442316	-0.07366230107610311	-0.2359901323153996	0.01090067443404944	-0.008516818085163908	-0.2424126993672798	0.1135930613262103	0.04502040999691597	0.3010716123180688	-4.580423802280423	-19.78417369327313	3.88068710017097	-16.04928928335632	-655.5410158844327	-74.42351259808584	-11.10215122633137	0.3533175630343977	0.9772627817707632	-0.8890803108172772	-0.9460401792129413	0.5105290515331754	-0.4594081858226658	2.323397897788076	-1.059290711542753	-1.059290711535976	-0.2992226353678158	0.0007809993744484897	-0.4930149186590674	0.4232753968278122	6.869389916755152e-07	5.825098390659137e-08	-3.979988341506799e-06	-4.180758176440897e-07	7.480129606189343e-07	-1.708509432407169e-07	5.227042853830236e-07
1.52	-0.04898990724376612	-0.04618704685927742	0.8225241133471759	0.8472695152514234	-0.3157901513800702	-0.1183843517161867	-0.803311996052656	0.8632726740732021	0.8632726740732098	-0.07089197581270532	-0.1745304090349074	0.1300117968793579	0.02290978084601452	0.4782492576884229	0.3042843110722936	0.5903922010015806	-2.586128279425322	0.06312951621324329	-0.6910890295941178	0.8590693952025179	-2.370257397237025	-2.370257397237028	-0.2446739916189122	-8.942875203846088e-05	-0.4066617326944135	-0.06911075029228771	-0.2271499917426152	0.01069026186507527	-0.008409800737324162	-0.2373498843015741	0.1125928658113414	0.04461952887639965	0.2926324006687075	-4.5326177162898	-19.73910540961031	4.011331231064764	-15.90829053515519	-649.0992362443634	-74.4241808991201	-12.04567689568812	0.2920425593451879	0.9617834584101242	-0.9683575744288441	-0.7191431052463497	0.5607209066952629	-0.5091251173132243	2.281988291904458	-0.8451647372580663	-0.845164737258066	-0.1419380513162542	-0.004828216990420651	-0.4081690661848025	0.5077868905295567	7.015681895649974e-07	2.054020444639165e-07	-3.92487184901713e-06	-4.015524731184756e-07	7.895956002929644e-07	-2.956560993293453e-08	5.306695509327238e-07
1.53	-0.04419315738453308	-0.04309637553436306	0.8283784763633705	0.8213743250916712	-0.3151324341242319	-0.1253172605365936	-0.794608826969915	0.839530575262477	0.8395305752624965	-0.07335082863281686	-0.1745314481582233	0.1259252774703966	0.02224225961817225	0.4810150080609805	0.3138178550002953	0.580358322266582	-2.592574403298774	0.06841331104398379	-0.6954102349018949	0.8814531841846186	-2.37781812614257	-2.377818126142635	-0.2470960277459296	-9.883792994251322e-05	-0.4105236411782762	-0.06436013107206702	-0.2182143502394228	0.01023056915937924	-0.008208575497610279	-0.2325580060284847	0.1116800199996599	0.04400769609277171	0.284079925157376	-4.483715034659519	-19.59169290591299	4.113181732390741	-15.64913657137406	-642.8803085634903	-74.3154681349537	-12.97348434703915	0.2560563974579416	0.9442522417111326	-1.039044249893331	-0.5569517996709251	0.5125620778013213	-0.3806890823498991	2.199888627241373	-0.6599993938011209	-0.6599993938104983	-0.2922620246013611	0.00319466896429922	-0.3574051821486031	0.4640642130556976	7.113898251472986e-07	3.939066299482585e-07	-3.820789628812929e-06	-3.770342462615533e-07	8.314414636976171e-07	1.172207756119106e-07	5.37531872918518e-07
